G04 start of page 2 for group 8 layer_idx 1 *
G04 Title: (unknown), bottom_copper *
G04 Creator: pcb-rnd 3.1.5-dev *
G04 CreationDate: 2024-03-26 08:12:32 UTC *
G04 For: STEM4ukraine *
G04 Format: Gerber/RS-274X *
G04 PCB-Dimensions: 393701 393701 *
G04 PCB-Coordinate-Origin: lower left *
%MOIN*%
%FSLAX25Y25*%
%LNBOTTOM_COPPER_NONE_8*%
%ADD25C,0.0394*%
%ADD24C,0.0374*%
%ADD23C,0.1220*%
%ADD22C,0.0800*%
%ADD21C,0.1535*%
%ADD20C,0.0827*%
%ADD19C,0.0276*%
%ADD18C,0.0001*%
G54D18*G36*
X379122Y1969D02*Y47359D01*
X379203Y47366D01*
X379394Y47413D01*
X379576Y47489D01*
X379743Y47592D01*
X379892Y47721D01*
X380019Y47871D01*
X380121Y48039D01*
X380192Y48223D01*
X380348Y48775D01*
X380449Y49341D01*
X380500Y49913D01*
Y50488D01*
X380449Y51060D01*
X380348Y51626D01*
X380198Y52181D01*
X380125Y52364D01*
X380022Y52533D01*
X379895Y52683D01*
X379745Y52812D01*
X379578Y52916D01*
X379396Y52993D01*
X379204Y53040D01*
X379122Y53047D01*
Y228184D01*
X385827Y223425D01*
X391732Y215551D01*
Y1969D01*
X379122D01*
G37*
G36*
X374002D02*Y43701D01*
X374287D01*
X374860Y43751D01*
X375425Y43852D01*
X375980Y44003D01*
X376163Y44076D01*
X376332Y44179D01*
X376483Y44306D01*
X376611Y44455D01*
X376715Y44623D01*
X376792Y44805D01*
X376839Y44997D01*
X376855Y45194D01*
X376841Y45390D01*
X376796Y45583D01*
X376721Y45765D01*
X376619Y45934D01*
X376491Y46085D01*
X376342Y46214D01*
X376174Y46318D01*
X375992Y46394D01*
X375801Y46441D01*
X375604Y46458D01*
X375407Y46443D01*
X375216Y46394D01*
X374876Y46298D01*
X374529Y46236D01*
X374177Y46205D01*
X374002D01*
Y54197D01*
X374177D01*
X374529Y54166D01*
X374876Y54104D01*
X375217Y54011D01*
X375408Y53962D01*
X375604Y53948D01*
X375800Y53964D01*
X375991Y54011D01*
X376172Y54087D01*
X376340Y54191D01*
X376489Y54320D01*
X376616Y54470D01*
X376718Y54638D01*
X376792Y54820D01*
X376837Y55012D01*
X376851Y55208D01*
X376835Y55404D01*
X376788Y55595D01*
X376712Y55777D01*
X376608Y55944D01*
X376480Y56093D01*
X376330Y56220D01*
X376161Y56322D01*
X375978Y56393D01*
X375425Y56549D01*
X374860Y56650D01*
X374287Y56701D01*
X374002D01*
Y231817D01*
X379122Y228184D01*
Y53047D01*
X379007Y53056D01*
X378810Y53042D01*
X378618Y52997D01*
X378436Y52922D01*
X378267Y52820D01*
X378116Y52692D01*
X377987Y52543D01*
X377883Y52375D01*
X377807Y52193D01*
X377760Y52001D01*
X377743Y51805D01*
X377758Y51608D01*
X377807Y51417D01*
X377903Y51077D01*
X377965Y50729D01*
X377996Y50377D01*
Y50024D01*
X377965Y49672D01*
X377903Y49325D01*
X377810Y48984D01*
X377762Y48793D01*
X377747Y48597D01*
X377764Y48401D01*
X377810Y48210D01*
X377887Y48028D01*
X377990Y47861D01*
X378119Y47712D01*
X378269Y47585D01*
X378437Y47483D01*
X378619Y47409D01*
X378811Y47364D01*
X379007Y47349D01*
X379122Y47359D01*
Y1969D01*
X374002D01*
G37*
G36*
X363101D02*Y9261D01*
X363110Y9261D01*
X364073Y9336D01*
X365012Y9562D01*
X365904Y9931D01*
X366727Y10436D01*
X367461Y11063D01*
X368088Y11797D01*
X368592Y12620D01*
X368962Y13512D01*
X369187Y14451D01*
X369244Y15413D01*
X369187Y16376D01*
X368962Y17315D01*
X368592Y18207D01*
X368088Y19030D01*
X367461Y19764D01*
X366727Y20391D01*
X365904Y20896D01*
X365012Y21265D01*
X364073Y21490D01*
X363110Y21566D01*
X363101Y21565D01*
Y21860D01*
X363110Y21859D01*
X364073Y21935D01*
X365012Y22160D01*
X365904Y22530D01*
X366727Y23034D01*
X367461Y23661D01*
X368088Y24395D01*
X368592Y25219D01*
X368962Y26110D01*
X369187Y27049D01*
X369244Y28012D01*
X369187Y28974D01*
X368962Y29913D01*
X368592Y30805D01*
X368088Y31628D01*
X367461Y32362D01*
X366727Y32990D01*
X365904Y33494D01*
X365012Y33863D01*
X364073Y34089D01*
X363110Y34165D01*
X363101Y34164D01*
Y43701D01*
X367902D01*
X368000Y43693D01*
X368392Y43724D01*
X368392Y43724D01*
X368775Y43816D01*
X369138Y43966D01*
X369474Y44172D01*
X369773Y44428D01*
X370029Y44727D01*
X370234Y45062D01*
X370385Y45426D01*
X370477Y45808D01*
X370508Y46201D01*
X370500Y46299D01*
Y54103D01*
X370508Y54201D01*
X370477Y54593D01*
X370477Y54593D01*
X370385Y54976D01*
X370234Y55339D01*
X370029Y55675D01*
X369773Y55974D01*
X369474Y56230D01*
X369138Y56435D01*
X368775Y56586D01*
X368392Y56678D01*
X368000Y56708D01*
X367902Y56701D01*
X363101D01*
Y239553D01*
X374002Y231817D01*
Y56701D01*
X373713D01*
X373140Y56650D01*
X372575Y56549D01*
X372020Y56399D01*
X371837Y56325D01*
X371668Y56223D01*
X371517Y56096D01*
X371389Y55946D01*
X371285Y55778D01*
X371208Y55596D01*
X371161Y55405D01*
X371145Y55208D01*
X371159Y55011D01*
X371204Y54819D01*
X371279Y54636D01*
X371381Y54468D01*
X371509Y54317D01*
X371658Y54188D01*
X371826Y54084D01*
X372008Y54008D01*
X372199Y53961D01*
X372396Y53944D01*
X372593Y53959D01*
X372784Y54007D01*
X373124Y54104D01*
X373471Y54166D01*
X373823Y54197D01*
X374002D01*
Y46205D01*
X373823D01*
X373471Y46236D01*
X373124Y46298D01*
X372783Y46390D01*
X372592Y46439D01*
X372396Y46454D01*
X372200Y46437D01*
X372009Y46390D01*
X371828Y46314D01*
X371660Y46210D01*
X371511Y46082D01*
X371384Y45932D01*
X371282Y45763D01*
X371208Y45581D01*
X371163Y45390D01*
X371149Y45194D01*
X371165Y44998D01*
X371212Y44806D01*
X371288Y44625D01*
X371392Y44458D01*
X371520Y44309D01*
X371670Y44182D01*
X371839Y44080D01*
X372022Y44009D01*
X372575Y43852D01*
X373140Y43751D01*
X373713Y43701D01*
X374002D01*
Y1969D01*
X363101D01*
G37*
G36*
X360098Y56701D02*X360000Y56708D01*
X359608Y56678D01*
X359608Y56678D01*
X359225Y56586D01*
X358862Y56435D01*
X358526Y56230D01*
X358227Y55974D01*
X357971Y55675D01*
X357766Y55339D01*
X357615Y54976D01*
X357523Y54593D01*
X357492Y54201D01*
X357500Y54103D01*
Y53579D01*
X353270D01*
Y245846D01*
X355315Y245079D01*
X363101Y239553D01*
Y56701D01*
X360098D01*
G37*
G36*
X362148Y34089D02*X361209Y33863D01*
X360317Y33494D01*
X359494Y32990D01*
X358760Y32362D01*
X358189Y31694D01*
X357618Y32362D01*
X356884Y32990D01*
X356061Y33494D01*
X355169Y33863D01*
X354230Y34089D01*
X353270Y34164D01*
Y46823D01*
X357500D01*
Y46299D01*
X357492Y46201D01*
X357523Y45809D01*
X357523Y45808D01*
X357615Y45426D01*
X357766Y45062D01*
X357971Y44727D01*
X358227Y44428D01*
X358526Y44172D01*
X358862Y43966D01*
X359225Y43816D01*
X359608Y43724D01*
X360000Y43693D01*
X360098Y43701D01*
X363101D01*
Y34164D01*
X362148Y34089D01*
G37*
G36*
X353270Y1969D02*Y9280D01*
X353538D01*
X354075Y9327D01*
X354607Y9421D01*
X355128Y9562D01*
X355635Y9748D01*
X355776Y9819D01*
X355904Y9913D01*
X356015Y10025D01*
X356108Y10153D01*
X356179Y10294D01*
X356227Y10444D01*
X356251Y10601D01*
X356251Y10759D01*
X356226Y10915D01*
X356176Y11065D01*
X356104Y11205D01*
X356011Y11333D01*
X355899Y11444D01*
X355771Y11537D01*
X355630Y11608D01*
X355479Y11656D01*
X355323Y11681D01*
X355165Y11680D01*
X355009Y11655D01*
X354860Y11603D01*
X354520Y11474D01*
X354169Y11379D01*
X353812Y11315D01*
X353449Y11284D01*
X353270D01*
Y19543D01*
X353449D01*
X353812Y19511D01*
X354169Y19448D01*
X354520Y19353D01*
X354862Y19228D01*
X355010Y19176D01*
X355165Y19151D01*
X355323Y19150D01*
X355478Y19174D01*
X355628Y19222D01*
X355769Y19293D01*
X355896Y19386D01*
X356008Y19496D01*
X356101Y19624D01*
X356173Y19764D01*
X356222Y19913D01*
X356247Y20068D01*
X356247Y20226D01*
X356223Y20381D01*
X356175Y20531D01*
X356104Y20672D01*
X356012Y20799D01*
X355901Y20911D01*
X355774Y21004D01*
X355633Y21073D01*
X355128Y21264D01*
X354607Y21405D01*
X354075Y21500D01*
X353538Y21547D01*
X353270D01*
Y21859D01*
X354230Y21935D01*
X355169Y22160D01*
X356061Y22530D01*
X356884Y23034D01*
X357618Y23661D01*
X358189Y24329D01*
X358760Y23661D01*
X359494Y23034D01*
X360317Y22530D01*
X361209Y22160D01*
X362148Y21935D01*
X363101Y21860D01*
Y21565D01*
X362148Y21490D01*
X361209Y21265D01*
X360317Y20896D01*
X359494Y20391D01*
X358760Y19764D01*
X358133Y19030D01*
X357720Y18356D01*
X357616Y18322D01*
X357476Y18250D01*
X357348Y18157D01*
X357237Y18045D01*
X357144Y17916D01*
X357073Y17775D01*
X357025Y17625D01*
X357000Y17469D01*
X357001Y17311D01*
X357026Y17155D01*
X357078Y17006D01*
X357143Y16834D01*
X357033Y16376D01*
X356957Y15413D01*
X357033Y14451D01*
X357144Y13989D01*
X357082Y13819D01*
X357030Y13671D01*
X357005Y13516D01*
X357004Y13358D01*
X357029Y13203D01*
X357077Y13053D01*
X357148Y12912D01*
X357240Y12785D01*
X357351Y12673D01*
X357478Y12580D01*
X357618Y12508D01*
X357716Y12476D01*
X358133Y11797D01*
X358760Y11063D01*
X359494Y10436D01*
X360317Y9931D01*
X361209Y9562D01*
X362148Y9336D01*
X363101Y9261D01*
Y1969D01*
X353270D01*
G37*
G36*
X333350Y53579D02*Y59808D01*
X333358Y59906D01*
X333327Y60298D01*
X333327Y60298D01*
X333235Y60680D01*
X333085Y61044D01*
X332879Y61380D01*
X332624Y61679D01*
X332324Y61934D01*
X331989Y62140D01*
X331625Y62290D01*
X331243Y62382D01*
X330850Y62413D01*
X330752Y62406D01*
X322948D01*
X322850Y62413D01*
X322458Y62382D01*
X322458Y62382D01*
X322075Y62290D01*
X321712Y62140D01*
X321376Y61934D01*
X321077Y61679D01*
X320822Y61380D01*
X320616Y61044D01*
X320465Y60680D01*
X320374Y60298D01*
X320343Y59906D01*
X320350Y59808D01*
Y52003D01*
X320343Y51906D01*
X320374Y51513D01*
X320374Y51513D01*
X320465Y51131D01*
X320616Y50767D01*
X320822Y50432D01*
X321022Y50197D01*
X320822Y49962D01*
X320616Y49627D01*
X320465Y49263D01*
X320374Y48880D01*
X320343Y48488D01*
X320350Y48390D01*
Y40586D01*
X320343Y40488D01*
X320374Y40096D01*
X320374Y40096D01*
X320465Y39713D01*
X320616Y39350D01*
X320822Y39014D01*
X321077Y38715D01*
X321376Y38459D01*
X321712Y38254D01*
X322075Y38103D01*
X322458Y38011D01*
X322850Y37980D01*
X322948Y37988D01*
X323472D01*
Y36079D01*
X291500D01*
X291490Y36078D01*
X291477Y36081D01*
X291414Y36101D01*
X291353Y36126D01*
X291295Y36156D01*
X291239Y36192D01*
X291187Y36232D01*
X291138Y36277D01*
X261022Y66393D01*
Y72783D01*
X290434Y43372D01*
X290649Y42473D01*
X291041Y41528D01*
X291576Y40656D01*
X292240Y39878D01*
X293018Y39213D01*
X293890Y38679D01*
X294836Y38287D01*
X295830Y38048D01*
X296850Y37968D01*
X297870Y38048D01*
X298865Y38287D01*
X299810Y38679D01*
X300683Y39213D01*
X301461Y39878D01*
X302125Y40656D01*
X302660Y41528D01*
X303051Y42473D01*
X303290Y43468D01*
X303350Y44488D01*
X303290Y45508D01*
X303051Y46503D01*
X302660Y47448D01*
X302125Y48321D01*
X301461Y49099D01*
X300683Y49763D01*
X299975Y50197D01*
X300683Y50631D01*
X301461Y51295D01*
X302125Y52073D01*
X302660Y52945D01*
X303051Y53891D01*
X303290Y54886D01*
X303350Y55906D01*
X303290Y56925D01*
X303051Y57920D01*
X302934Y58203D01*
X303129Y58821D01*
X303271Y59462D01*
X303356Y60112D01*
X303385Y60767D01*
X303378Y60868D01*
Y208293D01*
X303425Y208289D01*
X303739Y208314D01*
X303739Y208314D01*
X304045Y208387D01*
X304336Y208508D01*
X304604Y208672D01*
X304844Y208877D01*
X305048Y209116D01*
X305213Y209384D01*
X305333Y209675D01*
X305407Y209981D01*
X305431Y210295D01*
X305425Y210374D01*
Y222028D01*
X305431Y222106D01*
X305407Y222420D01*
X305333Y222726D01*
X305213Y223017D01*
X305048Y223285D01*
X304844Y223525D01*
X304604Y223729D01*
X304336Y223894D01*
X304045Y224014D01*
X303739Y224088D01*
X303425Y224112D01*
X303347Y224106D01*
X296614D01*
X296535Y224112D01*
X296222Y224088D01*
X296222Y224088D01*
X295915Y224014D01*
X295625Y223894D01*
X295356Y223729D01*
X295117Y223525D01*
X294980Y223365D01*
X294844Y223525D01*
X294604Y223729D01*
X294336Y223894D01*
X294045Y224014D01*
X293739Y224088D01*
X293425Y224112D01*
X293347Y224106D01*
X291480D01*
X291323Y224097D01*
X291170Y224060D01*
X291025Y224000D01*
X290891Y223918D01*
X290771Y223816D01*
X290669Y223696D01*
X290587Y223562D01*
X290526Y223416D01*
X290490Y223263D01*
X290477Y223106D01*
X290490Y222949D01*
X290526Y222796D01*
X290587Y222651D01*
X290669Y222517D01*
X290771Y222397D01*
X290891Y222295D01*
X291025Y222213D01*
X291170Y222152D01*
X291323Y222116D01*
X291419Y222110D01*
X291419Y222106D01*
X288535D01*
X288535Y222110D01*
X288637Y222116D01*
X288790Y222152D01*
X288936Y222213D01*
X289070Y222295D01*
X289190Y222397D01*
X289292Y222517D01*
X289374Y222651D01*
X289434Y222796D01*
X289471Y222949D01*
X289483Y223106D01*
X289471Y223263D01*
X289434Y223416D01*
X289374Y223562D01*
X289292Y223696D01*
X289190Y223816D01*
X289070Y223918D01*
X288936Y224000D01*
X288790Y224060D01*
X288637Y224097D01*
X288480Y224106D01*
X286614D01*
X286535Y224112D01*
X286222Y224088D01*
X285915Y224014D01*
X285625Y223894D01*
X285356Y223729D01*
X285117Y223525D01*
X284912Y223285D01*
X284748Y223017D01*
X284627Y222726D01*
X284554Y222420D01*
X284529Y222106D01*
X284535Y222028D01*
Y217701D01*
X284545Y217544D01*
X284581Y217391D01*
X284642Y217245D01*
X284724Y217111D01*
X284826Y216991D01*
X284946Y216889D01*
X285080Y216807D01*
X285225Y216747D01*
X285379Y216710D01*
X285535Y216698D01*
X285692Y216710D01*
X285845Y216747D01*
X285991Y216807D01*
X286125Y216889D01*
X286245Y216991D01*
X286347Y217111D01*
X286429Y217245D01*
X286489Y217391D01*
X286526Y217544D01*
X286535Y217701D01*
Y214701D01*
X286526Y214858D01*
X286489Y215011D01*
X286429Y215156D01*
X286347Y215290D01*
X286245Y215410D01*
X286125Y215512D01*
X285991Y215595D01*
X285845Y215655D01*
X285692Y215692D01*
X285535Y215704D01*
X285379Y215692D01*
X285225Y215655D01*
X285080Y215595D01*
X284946Y215512D01*
X284826Y215410D01*
X284724Y215290D01*
X284642Y215156D01*
X284581Y215011D01*
X284545Y214858D01*
X284535Y214701D01*
Y210374D01*
X284529Y210295D01*
X284554Y209981D01*
X284627Y209675D01*
X284748Y209384D01*
X284912Y209116D01*
X285117Y208877D01*
X285356Y208672D01*
X285625Y208508D01*
X285915Y208387D01*
X286222Y208314D01*
X286535Y208289D01*
X286614Y208295D01*
X288480D01*
X288637Y208305D01*
X288790Y208341D01*
X288936Y208402D01*
X289070Y208484D01*
X289190Y208586D01*
X289292Y208706D01*
X289374Y208840D01*
X289434Y208985D01*
X289471Y209138D01*
X289483Y209295D01*
X289471Y209452D01*
X289434Y209605D01*
X289374Y209751D01*
X289292Y209885D01*
X289190Y210005D01*
X289070Y210107D01*
X288936Y210189D01*
X288790Y210249D01*
X288637Y210286D01*
X288535Y210292D01*
X288535Y210295D01*
X291419D01*
X291419Y210292D01*
X291323Y210286D01*
X291170Y210249D01*
X291025Y210189D01*
X290891Y210107D01*
X290771Y210005D01*
X290669Y209885D01*
X290587Y209751D01*
X290526Y209605D01*
X290490Y209452D01*
X290477Y209295D01*
X290490Y209138D01*
X290526Y208985D01*
X290587Y208840D01*
X290669Y208706D01*
X290771Y208586D01*
X290891Y208484D01*
X291025Y208402D01*
X291170Y208341D01*
X291323Y208305D01*
X291480Y208295D01*
X293347D01*
X293425Y208289D01*
X293739Y208314D01*
X294045Y208387D01*
X294336Y208508D01*
X294604Y208672D01*
X294844Y208877D01*
X294980Y209037D01*
X295117Y208877D01*
X295356Y208672D01*
X295625Y208508D01*
X295915Y208387D01*
X296222Y208314D01*
X296535Y208289D01*
X296614Y208295D01*
X296622D01*
Y62408D01*
X295830Y62345D01*
X294836Y62106D01*
X293890Y61715D01*
X293018Y61180D01*
X292240Y60516D01*
X291576Y59738D01*
X291041Y58866D01*
X290649Y57920D01*
X290411Y56925D01*
X290330Y55906D01*
X290411Y54886D01*
X290649Y53891D01*
X291041Y52945D01*
X291576Y52073D01*
X292240Y51295D01*
X293018Y50631D01*
X293726Y50197D01*
X293377Y49983D01*
X261022Y82337D01*
Y293276D01*
X305040D01*
X305118Y293269D01*
X305432Y293294D01*
X305432Y293294D01*
X305738Y293368D01*
X306029Y293488D01*
X306297Y293653D01*
X306537Y293857D01*
X306741Y294096D01*
X306906Y294365D01*
X307026Y294656D01*
X307100Y294962D01*
X307124Y295276D01*
X307118Y295354D01*
Y326693D01*
X307124Y326772D01*
X307100Y327085D01*
X307100Y327085D01*
X307026Y327392D01*
X306906Y327682D01*
X306741Y327951D01*
X306537Y328190D01*
X306297Y328395D01*
X306029Y328559D01*
X305738Y328680D01*
X305432Y328753D01*
X305118Y328778D01*
X305040Y328772D01*
X261022D01*
Y390748D01*
X262795D01*
X280512Y388780D01*
X298228Y381890D01*
X324803Y362205D01*
X328740Y355315D01*
X344488Y331693D01*
X349409Y314961D01*
Y294291D01*
X346457Y275591D01*
X342520Y255906D01*
X344488Y250984D01*
X347441Y248031D01*
X353270Y245846D01*
Y53579D01*
X333350D01*
G37*
G36*
X353268Y34165D02*X352305Y34089D01*
X352024Y34021D01*
X351723Y34303D01*
X351203Y34702D01*
X350650Y35055D01*
X350278Y35248D01*
X350068Y35358D01*
X349462Y35609D01*
X348836Y35806D01*
X348196Y35948D01*
X347545Y36034D01*
X347393Y36040D01*
X347363Y36047D01*
X347200Y36060D01*
X347135Y36069D01*
X347036Y36073D01*
X346833Y36089D01*
X346701Y36079D01*
X330228D01*
Y37988D01*
X330752D01*
X330850Y37980D01*
X331242Y38011D01*
X331243Y38011D01*
X331625Y38103D01*
X331989Y38254D01*
X332324Y38459D01*
X332624Y38715D01*
X332879Y39014D01*
X333085Y39350D01*
X333235Y39713D01*
X333327Y40096D01*
X333358Y40488D01*
X333350Y40586D01*
Y46823D01*
X353270D01*
Y34164D01*
X353268Y34165D01*
G37*
G36*
X348334Y1969D02*Y12448D01*
X348455Y12430D01*
X348613Y12430D01*
X348769Y12455D01*
X348919Y12505D01*
X349060Y12577D01*
X349187Y12670D01*
X349299Y12782D01*
X349391Y12910D01*
X349462Y13051D01*
X349511Y13202D01*
X349535Y13358D01*
X349535Y13516D01*
X349509Y13672D01*
X349457Y13821D01*
X349328Y14161D01*
X349233Y14512D01*
X349170Y14870D01*
X349138Y15232D01*
Y15595D01*
X349170Y15957D01*
X349233Y16315D01*
X349328Y16666D01*
X349453Y17007D01*
X349505Y17156D01*
X349531Y17311D01*
X349531Y17468D01*
X349507Y17624D01*
X349459Y17774D01*
X349388Y17914D01*
X349296Y18042D01*
X349185Y18154D01*
X349058Y18246D01*
X348918Y18318D01*
X348768Y18367D01*
X348613Y18393D01*
X348455Y18393D01*
X348334Y18374D01*
Y24343D01*
X348917Y23661D01*
X349651Y23034D01*
X350474Y22530D01*
X351366Y22160D01*
X352305Y21935D01*
X353268Y21859D01*
X353270Y21859D01*
Y21547D01*
X352998D01*
X352460Y21500D01*
X351928Y21405D01*
X351407Y21264D01*
X350900Y21078D01*
X350759Y21007D01*
X350632Y20914D01*
X350520Y20802D01*
X350428Y20674D01*
X350357Y20533D01*
X350308Y20382D01*
X350284Y20226D01*
X350285Y20068D01*
X350310Y19912D01*
X350359Y19762D01*
X350431Y19621D01*
X350524Y19494D01*
X350637Y19382D01*
X350765Y19290D01*
X350906Y19219D01*
X351056Y19170D01*
X351212Y19146D01*
X351370Y19147D01*
X351526Y19172D01*
X351675Y19224D01*
X352015Y19353D01*
X352366Y19448D01*
X352724Y19511D01*
X353086Y19543D01*
X353270D01*
Y11284D01*
X353086D01*
X352724Y11315D01*
X352366Y11379D01*
X352015Y11474D01*
X351674Y11599D01*
X351525Y11651D01*
X351370Y11676D01*
X351213Y11677D01*
X351057Y11653D01*
X350907Y11604D01*
X350767Y11533D01*
X350639Y11441D01*
X350528Y11330D01*
X350435Y11203D01*
X350363Y11063D01*
X350314Y10914D01*
X350289Y10758D01*
X350288Y10601D01*
X350312Y10445D01*
X350360Y10296D01*
X350431Y10155D01*
X350523Y10027D01*
X350634Y9916D01*
X350761Y9823D01*
X350903Y9754D01*
X351407Y9562D01*
X351928Y9421D01*
X352460Y9327D01*
X352998Y9280D01*
X353270D01*
Y1969D01*
X348334D01*
G37*
G36*
X261022D02*Y56838D01*
X286361Y31499D01*
X286361Y31499D01*
X286840Y31051D01*
X287360Y30652D01*
X287913Y30299D01*
X288495Y29997D01*
X289101Y29746D01*
X289727Y29548D01*
X290367Y29406D01*
X291018Y29321D01*
X291434Y29302D01*
X291673Y29292D01*
X292105Y29323D01*
X346458D01*
X346890Y29289D01*
X346967Y29295D01*
X347014Y29289D01*
X347021Y29288D01*
X347086Y29273D01*
X347149Y29254D01*
X347210Y29228D01*
X347247Y29209D01*
X347191Y28974D01*
X347115Y28012D01*
X347191Y27049D01*
X347416Y26110D01*
X347786Y25219D01*
X348290Y24395D01*
X348334Y24343D01*
Y18374D01*
X348300Y18369D01*
X348150Y18321D01*
X348009Y18250D01*
X347882Y18158D01*
X347770Y18047D01*
X347677Y17920D01*
X347608Y17778D01*
X347417Y17274D01*
X347276Y16753D01*
X347181Y16221D01*
X347134Y15683D01*
Y15143D01*
X347181Y14606D01*
X347276Y14074D01*
X347417Y13553D01*
X347603Y13046D01*
X347674Y12905D01*
X347767Y12777D01*
X347879Y12666D01*
X348007Y12574D01*
X348148Y12502D01*
X348299Y12454D01*
X348334Y12448D01*
Y1969D01*
X261022D01*
G37*
G36*
X182087Y345472D02*X198819Y366142D01*
X206693Y374016D01*
X233268Y386811D01*
X250000Y390748D01*
X261022D01*
Y328772D01*
X246141D01*
X246063Y328778D01*
X245749Y328753D01*
X245749Y328753D01*
X245443Y328680D01*
X245152Y328559D01*
X244884Y328395D01*
X244644Y328190D01*
X244440Y327951D01*
X244275Y327682D01*
X244155Y327392D01*
X244082Y327085D01*
X244057Y326772D01*
X244063Y326693D01*
Y295354D01*
X244057Y295276D01*
X244082Y294962D01*
X244082Y294962D01*
X244155Y294656D01*
X244275Y294365D01*
X244440Y294096D01*
X244644Y293857D01*
X244884Y293653D01*
X245152Y293488D01*
X245443Y293368D01*
X245749Y293294D01*
X246063Y293269D01*
X246141Y293276D01*
X261022D01*
Y82337D01*
X236108Y107252D01*
X236100Y107261D01*
X236055Y107309D01*
X236015Y107361D01*
X235979Y107417D01*
X235949Y107476D01*
X235924Y107536D01*
X235904Y107599D01*
X235889Y107664D01*
X235881Y107729D01*
X235878Y107795D01*
Y243293D01*
X235925Y243289D01*
X236239Y243314D01*
X236239Y243314D01*
X236545Y243387D01*
X236836Y243508D01*
X237104Y243672D01*
X237344Y243877D01*
X237548Y244116D01*
X237713Y244384D01*
X237833Y244675D01*
X237907Y244981D01*
X237931Y245295D01*
X237925Y245374D01*
Y257028D01*
X237931Y257106D01*
X237907Y257420D01*
X237833Y257726D01*
X237713Y258017D01*
X237548Y258285D01*
X237344Y258525D01*
X237104Y258729D01*
X236836Y258894D01*
X236545Y259014D01*
X236239Y259088D01*
X235925Y259112D01*
X235847Y259106D01*
X229114D01*
X229035Y259112D01*
X228722Y259088D01*
X228722Y259088D01*
X228415Y259014D01*
X228125Y258894D01*
X227856Y258729D01*
X227617Y258525D01*
X227480Y258365D01*
X227344Y258525D01*
X227104Y258729D01*
X226836Y258894D01*
X226545Y259014D01*
X226239Y259088D01*
X225925Y259112D01*
X225847Y259106D01*
X223980D01*
X223823Y259097D01*
X223670Y259060D01*
X223525Y259000D01*
X223391Y258918D01*
X223271Y258816D01*
X223169Y258696D01*
X223087Y258562D01*
X223026Y258416D01*
X222990Y258263D01*
X222977Y258106D01*
X222990Y257949D01*
X223026Y257796D01*
X223087Y257651D01*
X223169Y257517D01*
X223271Y257397D01*
X223391Y257295D01*
X223525Y257213D01*
X223670Y257152D01*
X223823Y257116D01*
X223919Y257110D01*
X223919Y257106D01*
X221035D01*
X221035Y257110D01*
X221137Y257116D01*
X221290Y257152D01*
X221436Y257213D01*
X221570Y257295D01*
X221690Y257397D01*
X221792Y257517D01*
X221874Y257651D01*
X221934Y257796D01*
X221971Y257949D01*
X221983Y258106D01*
X221971Y258263D01*
X221934Y258416D01*
X221874Y258562D01*
X221792Y258696D01*
X221690Y258816D01*
X221570Y258918D01*
X221436Y259000D01*
X221290Y259060D01*
X221137Y259097D01*
X220980Y259106D01*
X219114D01*
X219035Y259112D01*
X218722Y259088D01*
X218415Y259014D01*
X218125Y258894D01*
X217856Y258729D01*
X217617Y258525D01*
X217412Y258285D01*
X217248Y258017D01*
X217127Y257726D01*
X217054Y257420D01*
X217029Y257106D01*
X217035Y257028D01*
Y252701D01*
X217045Y252544D01*
X217081Y252391D01*
X217142Y252245D01*
X217224Y252111D01*
X217326Y251991D01*
X217446Y251889D01*
X217580Y251807D01*
X217725Y251747D01*
X217879Y251710D01*
X218035Y251698D01*
X218192Y251710D01*
X218345Y251747D01*
X218491Y251807D01*
X218625Y251889D01*
X218745Y251991D01*
X218847Y252111D01*
X218929Y252245D01*
X218989Y252391D01*
X219026Y252544D01*
X219035Y252701D01*
Y249701D01*
X219026Y249858D01*
X218989Y250011D01*
X218929Y250156D01*
X218847Y250290D01*
X218745Y250410D01*
X218625Y250512D01*
X218491Y250595D01*
X218345Y250655D01*
X218192Y250692D01*
X218035Y250704D01*
X217879Y250692D01*
X217725Y250655D01*
X217580Y250595D01*
X217446Y250512D01*
X217326Y250410D01*
X217224Y250290D01*
X217142Y250156D01*
X217081Y250011D01*
X217045Y249858D01*
X217035Y249701D01*
Y245374D01*
X217029Y245295D01*
X217054Y244981D01*
X217127Y244675D01*
X217248Y244384D01*
X217412Y244116D01*
X217617Y243877D01*
X217856Y243672D01*
X218125Y243508D01*
X218415Y243387D01*
X218722Y243314D01*
X219035Y243289D01*
X219114Y243295D01*
X220980D01*
X221137Y243305D01*
X221290Y243341D01*
X221436Y243402D01*
X221570Y243484D01*
X221690Y243586D01*
X221792Y243706D01*
X221874Y243840D01*
X221934Y243985D01*
X221971Y244138D01*
X221983Y244295D01*
X221971Y244452D01*
X221934Y244605D01*
X221874Y244751D01*
X221792Y244885D01*
X221690Y245005D01*
X221570Y245107D01*
X221436Y245189D01*
X221290Y245249D01*
X221137Y245286D01*
X221035Y245292D01*
X221035Y245295D01*
X223919D01*
X223919Y245292D01*
X223823Y245286D01*
X223670Y245249D01*
X223525Y245189D01*
X223391Y245107D01*
X223271Y245005D01*
X223169Y244885D01*
X223087Y244751D01*
X223026Y244605D01*
X222990Y244452D01*
X222977Y244295D01*
X222990Y244138D01*
X223026Y243985D01*
X223087Y243840D01*
X223169Y243706D01*
X223271Y243586D01*
X223391Y243484D01*
X223525Y243402D01*
X223670Y243341D01*
X223823Y243305D01*
X223980Y243295D01*
X225847D01*
X225925Y243289D01*
X226239Y243314D01*
X226545Y243387D01*
X226836Y243508D01*
X227104Y243672D01*
X227344Y243877D01*
X227480Y244037D01*
X227617Y243877D01*
X227856Y243672D01*
X228125Y243508D01*
X228415Y243387D01*
X228722Y243314D01*
X229035Y243289D01*
X229114Y243295D01*
X229122D01*
Y107795D01*
X229122Y107795D01*
X229144Y107140D01*
X229229Y106489D01*
X229371Y105849D01*
X229568Y105223D01*
X229819Y104617D01*
X230122Y104035D01*
X230475Y103482D01*
X230874Y102962D01*
X231317Y102478D01*
X231393Y102412D01*
X261022Y72783D01*
Y66393D01*
X237654Y89760D01*
X237654Y89761D01*
X237176Y90209D01*
X236656Y90608D01*
X236102Y90960D01*
X235520Y91263D01*
X234914Y91514D01*
X234289Y91712D01*
X233648Y91854D01*
X232998Y91939D01*
X232343Y91968D01*
X232242Y91961D01*
X181102D01*
Y293276D01*
X210552D01*
X210630Y293269D01*
X210944Y293294D01*
X210944Y293294D01*
X211250Y293368D01*
X211541Y293488D01*
X211809Y293653D01*
X212048Y293857D01*
X212253Y294096D01*
X212417Y294365D01*
X212538Y294656D01*
X212611Y294962D01*
X212636Y295276D01*
X212630Y295354D01*
Y326693D01*
X212636Y326772D01*
X212611Y327085D01*
X212611Y327085D01*
X212538Y327392D01*
X212417Y327682D01*
X212253Y327951D01*
X212048Y328190D01*
X211809Y328395D01*
X211541Y328559D01*
X211250Y328680D01*
X210944Y328753D01*
X210630Y328778D01*
X210551Y328772D01*
X181102D01*
Y344734D01*
X182087Y345472D01*
G37*
G36*
X181102Y1969D02*Y85205D01*
X232331D01*
X232343Y85204D01*
X232409Y85202D01*
X232474Y85193D01*
X232538Y85179D01*
X232601Y85159D01*
X232662Y85134D01*
X232721Y85103D01*
X232776Y85068D01*
X232829Y85028D01*
X232877Y84983D01*
X261022Y56838D01*
Y1969D01*
X181102D01*
G37*
G36*
X1969D02*Y158465D01*
X8858Y179134D01*
X27559Y210630D01*
X48228Y231299D01*
X56102Y235236D01*
X71850Y239173D01*
X101378Y241142D01*
X122047Y244094D01*
X134843Y243110D01*
X140748Y244094D01*
X146654Y251969D01*
X145669Y257874D01*
X139764Y264764D01*
X132874Y296260D01*
X131890Y307087D01*
X142717Y344488D01*
X147638Y352362D01*
X154528Y354331D01*
X164370Y350394D01*
X172244Y343504D01*
X174213Y342520D01*
X178150D01*
X181102Y344734D01*
Y328772D01*
X151653D01*
X151575Y328778D01*
X151261Y328753D01*
X151261Y328753D01*
X150955Y328680D01*
X150664Y328559D01*
X150396Y328395D01*
X150156Y328190D01*
X149952Y327951D01*
X149787Y327682D01*
X149667Y327392D01*
X149593Y327085D01*
X149569Y326772D01*
X149575Y326693D01*
Y295354D01*
X149569Y295276D01*
X149593Y294962D01*
X149593Y294962D01*
X149667Y294656D01*
X149787Y294365D01*
X149952Y294096D01*
X150156Y293857D01*
X150396Y293653D01*
X150664Y293488D01*
X150955Y293368D01*
X151261Y293294D01*
X151575Y293269D01*
X151653Y293276D01*
X181102D01*
Y91961D01*
X179165D01*
Y98347D01*
X179172Y98425D01*
X179147Y98739D01*
X179147Y98739D01*
X179073Y99045D01*
X178953Y99336D01*
X178788Y99604D01*
X178584Y99844D01*
X178345Y100048D01*
X178076Y100213D01*
X177785Y100333D01*
X177479Y100407D01*
X177165Y100431D01*
X177087Y100425D01*
X153622D01*
X153543Y100431D01*
X153230Y100407D01*
X153229Y100407D01*
X152923Y100333D01*
X152633Y100213D01*
X152364Y100048D01*
X152125Y99844D01*
X151920Y99604D01*
X151756Y99336D01*
X151635Y99045D01*
X151562Y98739D01*
X151537Y98425D01*
X151543Y98347D01*
Y78819D01*
X151537Y78740D01*
X151562Y78427D01*
X151562Y78426D01*
X151635Y78120D01*
X151756Y77829D01*
X151920Y77561D01*
X152125Y77322D01*
X152364Y77117D01*
X152633Y76953D01*
X152923Y76832D01*
X153229Y76759D01*
X153543Y76734D01*
X153622Y76740D01*
X177087D01*
X177165Y76734D01*
X177479Y76759D01*
X177479Y76759D01*
X177785Y76832D01*
X178076Y76953D01*
X178345Y77117D01*
X178584Y77322D01*
X178788Y77561D01*
X178953Y77829D01*
X179073Y78120D01*
X179147Y78426D01*
X179172Y78740D01*
X179165Y78819D01*
Y85205D01*
X181102D01*
Y1969D01*
X1969D01*
G37*
G54D19*X232500Y251201D02*Y107795D01*
X232343Y88583D02*X165354D01*
X300000Y60767D02*Y216201D01*
X326850Y55906D02*Y32867D01*
X288750Y33888D02*X235266Y87372D01*
X296850Y55906D02*X298789Y57844D01*
X233711Y104872D02*X293422Y45160D01*
X353268Y28012D02*X349813Y31466D01*
X364000Y50201D02*X326850D01*
X346833Y32701D02*X291500D01*
X235266Y87372D02*G75*G03X232343Y88583I-2923J-2923D01*G01*
X298789Y57844D02*G75*G03X300000Y60767I-2923J2923D01*G01*
X296850Y44488D02*G75*G03X296572Y45160I-950J0D01*G01*
X232500Y107795D02*G75*G03X233711Y104872I4134J0D01*G01*
X349813Y31466D02*G75*G03X346890Y32677I-2923J-2923D01*G01*
X291673D02*G75*G02X288750Y33888I0J4134D01*G01*
X346890Y32677D02*G75*G03X346833Y32701I-57J-57D01*G01*
G54D18*G36*
X225925Y245295D02*X219035D01*
Y257106D01*
X225925D01*
Y245295D01*
G37*
G36*
X235925D02*X229035D01*
Y257106D01*
X235925D01*
Y245295D01*
G37*
G36*
X293425Y210295D02*X286535D01*
Y222106D01*
X293425D01*
Y210295D01*
G37*
G36*
X303425D02*X296535D01*
Y222106D01*
X303425D01*
Y210295D01*
G37*
G36*
X246063Y326772D02*X305118D01*
Y295276D01*
X246063D01*
Y326772D01*
G37*
G36*
X151575D02*X210630D01*
Y295276D01*
X151575D01*
Y326772D01*
G37*
G36*
X153543Y98425D02*X177165D01*
Y78740D01*
X153543D01*
Y98425D01*
G37*
G36*
X116142D02*X139764D01*
Y78740D01*
X116142D01*
Y98425D01*
G37*
G54D20*X353268Y28012D03*
Y15413D03*
G54D21*X334488Y19154D02*Y17579D01*
X381890Y19154D02*Y17579D01*
G54D20*X363110Y15413D03*
Y28012D03*
G54D18*G36*
X368000Y54201D02*Y46201D01*
X360000D01*
Y54201D01*
X368000D01*
G37*
G54D22*X374000Y50201D03*
G54D18*G36*
X330850Y51906D02*X322850D01*
Y59906D01*
X330850D01*
Y51906D01*
G37*
G54D22*X296850Y55906D03*
G54D18*G36*
X330850Y40488D02*X322850D01*
Y48488D01*
X330850D01*
Y40488D01*
G37*
G54D22*X296850Y44488D03*
G54D23*G54D24*G54D25*M02*
